<?xml version="1.0" encoding="utf-8"?>
<!-- Generator: Adobe Illustrator 16.0.0, SVG Export Plug-In . SVG Version: 6.00 Build 0)  -->
<!DOCTYPE svg PUBLIC "-//W3C//DTD SVG 1.0//EN" "http://www.w3.org/TR/2001/REC-SVG-20010904/DTD/svg10.dtd" [
	<!ENTITY ns_extend "http://ns.adobe.com/Extensibility/1.0/">
	<!ENTITY ns_ai "http://ns.adobe.com/AdobeIllustrator/10.0/">
	<!ENTITY ns_graphs "http://ns.adobe.com/Graphs/1.0/">
	<!ENTITY ns_vars "http://ns.adobe.com/Variables/1.0/">
	<!ENTITY ns_imrep "http://ns.adobe.com/ImageReplacement/1.0/">
	<!ENTITY ns_sfw "http://ns.adobe.com/SaveForWeb/1.0/">
	<!ENTITY ns_custom "http://ns.adobe.com/GenericCustomNamespace/1.0/">
	<!ENTITY ns_adobe_xpath "http://ns.adobe.com/XPath/1.0/">
]>
<svg version="1.0" id="Capa_1" xmlns:x="&ns_extend;" xmlns:i="&ns_ai;" xmlns:graph="&ns_graphs;"
	 xmlns="http://www.w3.org/2000/svg" xmlns:xlink="http://www.w3.org/1999/xlink" x="0px" y="0px" width="42px" height="42px"
	 viewBox="0 0 42 42" enable-background="new 0 0 42 42" xml:space="preserve">
<metadata>
	<sfw  xmlns="&ns_sfw;">
		<slices></slices>
		<sliceSourceBounds  height="42" width="42" y="235" x="235" bottomLeftOrigin="true"></sliceSourceBounds>
	</sfw>
</metadata>
<rect fill="#303030" width="42" height="42"/>
<path fill="#FFFFFF" d="M21.002,4.149L4.149,21.002l16.853,16.853l16.853-16.853L21.002,4.149z M21.002,7.554l5.877,5.876
	l-2.166,2.16h-7.421l-2.164-2.164L21.002,7.554z M24.008,17.996v6.012h-6.012v-6.012H24.008z M7.554,21.002l5.872-5.874l2.164,2.164
	v7.421l-2.16,2.166L7.554,21.002z M21.002,34.45l-5.874-5.874l2.164-2.162h7.421l2.163,2.162L21.002,34.45z M26.414,24.713v-7.421
	l2.162-2.164l5.874,5.874l-5.874,5.874L26.414,24.713z"/>
</svg>
